<?xml version="1.0" standalone="no"?>
<!DOCTYPE svg PUBLIC "-//W3C//DTD SVG 20010904//EN"
 "http://www.w3.org/TR/2001/REC-SVG-20010904/DTD/svg10.dtd">
<svg version="1.0" xmlns="http://www.w3.org/2000/svg"
 width="804.000024pt" height="768.000024pt" viewBox="0 0 804.000024 768.000024"
 preserveAspectRatio="xMidYMid meet">

<g transform="translate(0.000000,768.000024) scale(0.075000,-0.075000)"
fill="#5dabc7" stroke="none">
<path d="M5195 10145 c-170 2 -326 1 -345 -1 -19 -2 -90 -9 -157 -14 -67 -6
-181 -20 -252 -30 -72 -11 -177 -29 -233 -41 -57 -11 -155 -34 -219 -50 -64
-15 -182 -49 -263 -74 -80 -25 -229 -79 -331 -120 -101 -40 -276 -120 -387
-177 -112 -57 -267 -144 -345 -193 -78 -49 -198 -130 -267 -179 -68 -50 -182
-139 -253 -198 -70 -59 -173 -151 -229 -205 -55 -54 -80 -79 -56 -57 l44 41
177 -120 c158 -109 186 -124 280 -154 57 -18 114 -33 126 -33 13 0 37 -3 54
-6 17 -4 31 -12 31 -20 0 -7 6 -16 12 -20 7 -5 55 -13 108 -20 52 -7 135 -19
184 -28 49 -9 118 -16 153 -16 l65 0 71 66 c40 36 112 93 161 126 50 33 120
75 157 94 37 18 106 49 153 69 47 19 140 51 205 70 66 19 157 41 203 50 45 8
125 19 175 24 51 4 104 6 118 3 14 -2 25 -8 25 -12 0 -4 -38 -30 -84 -59 -47
-28 -88 -57 -92 -64 -6 -8 -3 -8 9 1 14 12 20 10 42 -12 19 -19 25 -35 25 -68
0 -29 -7 -54 -22 -75 -13 -17 -61 -79 -107 -136 -80 -102 -84 -105 -116 -100
-31 5 -36 2 -61 -38 -15 -24 -47 -88 -71 -142 -24 -54 -51 -129 -59 -165 -9
-39 -14 -96 -12 -137 2 -56 11 -86 37 -140 23 -46 57 -92 100 -136 49 -48 82
-72 126 -90 57 -22 76 -24 340 -29 l280 -5 79 -52 c44 -29 84 -53 90 -53 6 0
37 15 69 33 32 18 54 36 50 41 -4 4 1 4 11 0 9 -4 22 -18 27 -31 5 -13 9 -35
9 -48 0 -13 11 -41 25 -61 13 -20 27 -52 31 -71 4 -19 4 -59 1 -89 -3 -32 -18
-77 -38 -114 -18 -34 -58 -86 -88 -117 -32 -32 -150 -118 -276 -201 -121 -80
-259 -174 -307 -209 -47 -35 -100 -79 -117 -98 -17 -20 -40 -54 -52 -77 -11
-22 -23 -64 -26 -92 -3 -30 3 -101 16 -175 12 -68 21 -158 21 -200 0 -60 -5
-87 -22 -121 -17 -33 -35 -51 -68 -67 -24 -13 -59 -23 -78 -23 -18 0 -68 7
-110 16 -49 10 -107 15 -159 12 -72 -4 -89 -8 -140 -40 -37 -23 -71 -55 -95
-89 -22 -32 -44 -81 -54 -119 -11 -44 -14 -84 -10 -123 3 -32 17 -85 30 -118
13 -33 41 -85 62 -116 22 -30 68 -82 104 -115 36 -33 117 -94 180 -137 63 -42
158 -96 212 -119 53 -23 131 -51 175 -63 43 -11 125 -23 183 -28 58 -4 125 -3
150 2 25 5 77 18 115 29 39 11 157 56 264 100 107 44 228 89 270 100 44 11
126 22 196 25 69 3 148 1 185 -5 36 -6 93 -17 128 -24 34 -7 62 -16 62 -21 0
-4 5 -5 10 -2 6 4 47 -6 92 -20 45 -15 94 -33 108 -40 14 -7 69 -25 122 -39
59 -17 107 -24 123 -20 16 4 33 20 45 45 11 21 33 45 50 54 18 9 56 15 103 15
65 0 75 2 80 19 4 18 1 19 -43 14 -36 -4 -55 -1 -78 12 -17 10 -39 34 -50 54
-11 20 -22 51 -26 70 -3 19 -13 43 -22 52 -10 11 -14 27 -11 42 4 12 29 51 57
86 27 34 50 70 50 80 0 10 -8 25 -18 34 -10 10 -34 17 -54 17 -20 0 -46 -9
-61 -20 -14 -11 -29 -29 -32 -40 -4 -11 -12 -20 -19 -20 -7 0 -25 9 -38 20
-14 11 -35 39 -46 62 -11 24 -25 79 -32 123 -7 45 -9 106 -5 140 3 33 15 80
26 103 10 24 50 76 88 115 37 40 74 82 80 95 9 17 9 31 1 57 -6 19 -16 35 -21
35 -5 0 -28 -14 -51 -30 -22 -17 -53 -30 -68 -30 -15 0 -55 14 -89 31 -45 22
-98 66 -185 150 -87 83 -132 136 -154 178 -18 32 -35 79 -38 103 -4 29 1 63
15 107 11 35 18 68 15 75 -2 6 -18 19 -35 28 -16 10 -37 34 -46 55 -11 27 -14
58 -11 108 3 44 13 85 26 112 12 22 33 51 48 62 20 15 41 21 81 21 32 0 86
-11 130 -25 41 -14 110 -42 154 -62 l79 -36 0 -63 c0 -35 3 -64 8 -64 4 0 19
7 32 17 14 9 39 29 56 45 l32 30 52 -64 c29 -34 62 -68 74 -75 11 -7 31 -12
44 -13 16 0 26 8 33 28 6 15 17 40 25 56 8 16 17 53 20 81 4 32 1 68 -6 91 -7
22 -27 58 -44 82 -25 36 -31 55 -34 110 -2 54 1 73 17 100 12 18 32 37 45 43
21 10 35 6 100 -30 41 -22 88 -41 103 -41 15 0 46 12 68 25 22 14 51 25 65 25
14 0 43 -9 65 -19 22 -10 57 -37 78 -60 21 -23 42 -61 49 -85 8 -32 18 -46 33
-50 12 -3 40 -18 63 -33 23 -16 53 -44 67 -63 14 -18 25 -43 25 -54 0 -11 -7
-27 -15 -37 -15 -15 -14 -17 9 -23 14 -3 31 -16 37 -28 6 -11 11 -38 11 -59
-1 -22 -8 -49 -16 -61 -9 -12 -35 -31 -58 -43 -34 -15 -44 -26 -46 -48 -2 -16
2 -35 9 -43 6 -8 19 -14 29 -14 10 0 39 9 64 21 36 16 57 19 89 14 25 -5 52
-18 70 -37 25 -24 29 -34 24 -65 -4 -19 -14 -44 -23 -54 -9 -11 -30 -19 -46
-19 -16 0 -38 5 -49 10 -11 7 -19 21 -19 38 -1 26 -1 26 -16 7 -12 -15 -14
-33 -9 -75 3 -30 11 -72 17 -92 6 -21 20 -46 30 -55 11 -10 33 -22 50 -28 17
-5 36 -18 42 -27 7 -12 7 -32 0 -67 l-10 -50 41 -10 c22 -5 51 -20 63 -31 13
-12 26 -35 29 -52 4 -19 14 -33 30 -39 13 -5 38 -9 54 -9 16 0 45 6 63 14 19
8 51 30 72 49 22 19 80 53 131 75 50 23 103 44 117 48 19 5 26 2 26 -9 0 -8
-38 -56 -85 -106 -47 -50 -85 -95 -85 -101 0 -5 9 -10 19 -10 11 0 52 22 93
49 40 27 93 70 116 95 24 25 50 46 58 46 8 0 17 -6 20 -14 3 -8 -4 -36 -15
-61 -11 -26 -41 -78 -66 -116 l-46 -68 15 -46 c9 -25 16 -56 17 -68 0 -16 21
-35 77 -72 42 -27 84 -51 92 -52 8 -1 49 -5 91 -9 52 -4 82 -3 98 5 13 7 31
30 40 52 10 21 20 37 22 35 2 -2 5 5 6 17 1 12 4 36 7 52 3 17 12 89 20 160 9
72 19 248 23 391 3 144 3 270 -1 280 -6 16 -8 16 -22 -5 -15 -20 -22 -22 -102
-18 -86 4 -87 3 -89 -21 0 -13 -8 -31 -17 -40 -14 -14 -14 -18 2 -44 13 -23
14 -32 4 -46 -7 -9 -21 -30 -32 -47 -10 -16 -24 -36 -31 -44 -8 -9 -24 -11
-49 -7 -21 3 -60 16 -87 27 l-48 21 33 14 c26 11 32 20 32 44 0 17 -5 30 -12
30 -7 0 -30 -4 -51 -9 -32 -8 -42 -6 -58 10 -11 11 -19 33 -19 54 0 29 5 37
26 45 14 6 45 10 69 10 25 0 46 -5 49 -12 3 -10 8 -8 15 4 9 13 16 14 41 5 26
-10 32 -8 54 16 13 14 37 29 53 32 15 4 39 9 53 11 24 6 24 6 5 20 -11 8 -37
17 -58 21 -21 3 -36 11 -34 17 2 6 15 12 30 14 23 3 25 6 15 27 -6 13 -8 31
-4 40 5 15 10 14 42 -5 26 -17 45 -21 70 -17 19 3 46 15 60 26 15 12 31 18 36
14 7 -4 8 17 3 63 -4 38 -16 119 -26 179 -11 61 -27 134 -35 163 -9 30 -13 56
-11 59 3 3 29 -8 58 -24 29 -15 79 -52 111 -82 32 -29 56 -47 53 -39 -3 8 6
25 20 38 13 13 27 37 31 55 3 18 -2 57 -11 91 -9 32 -17 67 -18 76 -1 9 -6 14
-11 11 -5 -4 -7 1 -3 10 3 10 2 17 -4 17 -6 0 -7 5 -4 10 3 6 1 10 -5 10 -6 0
-8 5 -5 10 3 6 1 10 -5 10 -6 0 -8 5 -5 10 3 6 2 10 -3 10 -4 0 -18 17 -30 39
-12 21 -19 41 -15 45 3 3 2 6 -4 6 -6 0 -22 18 -37 40 -15 23 -24 46 -20 53 4
7 4 9 -1 5 -4 -4 -21 10 -37 32 -17 22 -26 45 -22 51 4 7 3 9 -3 6 -6 -4 -42
33 -81 81 -39 48 -102 118 -140 156 l-70 69 -27 -52 c-21 -43 -35 -57 -73 -74
-36 -16 -68 -21 -132 -21 -47 -1 -106 5 -132 13 -26 7 -59 24 -74 38 -22 20
-25 29 -19 63 5 32 4 40 -8 40 -8 0 -29 -16 -47 -36 -17 -20 -37 -50 -45 -68
-7 -17 -21 -52 -29 -77 -9 -26 -26 -55 -37 -65 -17 -16 -22 -16 -29 -4 -7 11
-10 8 -10 -12 0 -15 -5 -50 -11 -78 -6 -27 -15 -50 -20 -50 -5 0 -9 18 -9 40
0 34 -7 46 -45 85 -25 25 -53 45 -61 45 -9 0 -29 13 -45 29 -17 17 -29 40 -29
55 0 14 -2 26 -4 26 -3 0 -17 -5 -32 -11 -16 -5 -39 -7 -52 -4 -13 3 -44 26
-68 51 l-43 46 16 36 c8 21 16 46 17 57 1 16 -6 21 -32 23 -22 2 -41 -3 -53
-14 -10 -9 -19 -23 -19 -31 0 -7 -6 -13 -14 -13 -7 0 -28 10 -47 23 -20 14
-47 48 -66 86 -22 42 -33 77 -33 104 0 28 10 58 30 92 16 28 30 59 30 70 -1
11 -11 32 -25 47 -13 15 -42 35 -64 44 -23 9 -42 19 -42 23 -1 3 -3 24 -4 46
-2 22 -4 41 -5 43 -1 1 -3 8 -5 15 -1 6 5 22 12 35 8 13 24 35 36 49 12 14 30
28 41 32 12 5 -17 15 -89 31 -89 19 -103 25 -84 33 13 5 92 24 174 42 83 19
217 44 300 56 82 11 160 26 173 33 l22 12 -47 68 c-47 68 -50 70 -185 138 -75
38 -151 82 -168 98 -25 23 -58 37 -149 60 -64 17 -176 44 -248 60 -73 17 -137
30 -143 30 -5 0 -10 -23 -10 -52 0 -29 7 -72 16 -95 9 -24 21 -43 25 -43 5 0
9 -7 9 -16 0 -8 6 -21 13 -29 7 -7 12 -26 10 -41 -1 -16 -4 -38 -7 -49 -2 -11
-5 -23 -5 -26 -1 -3 -34 -16 -73 -28 -40 -12 -89 -29 -108 -37 -19 -8 -62 -19
-95 -24 -33 -6 -160 -10 -282 -10 -123 0 -223 -4 -223 -8 0 -5 -19 -12 -42
-18 -23 -5 -43 -14 -45 -21 -3 -7 43 -36 109 -68 62 -31 124 -67 138 -81 19
-19 22 -26 12 -36 -9 -9 -55 -14 -140 -16 l-127 -4 -30 -37 c-16 -21 -30 -41
-30 -44 0 -4 31 -47 69 -95 39 -48 94 -105 124 -126 l53 -38 132 41 c73 23
139 41 147 41 8 0 39 12 69 26 30 13 88 48 129 75 40 28 80 48 88 45 8 -3 14
1 14 9 0 7 -4 25 -9 39 -8 18 -6 28 5 37 12 10 27 10 72 1 31 -7 69 -21 85
-32 15 -12 100 -54 188 -95 88 -41 171 -85 185 -97 13 -13 24 -32 24 -43 0
-11 -14 -42 -30 -70 -18 -31 -30 -64 -30 -87 0 -20 4 -48 10 -62 l10 -26 -133
-2 -132 -2 124 -6 123 -5 -22 -20 c-19 -17 -39 -20 -153 -24 -122 -3 -134 -5
-160 -27 -16 -13 -38 -24 -49 -24 -11 0 -31 -9 -45 -20 -22 -17 -23 -20 -7
-20 13 0 15 -3 7 -11 -6 -6 -26 -15 -45 -19 -23 -6 -1 -8 77 -9 64 -1 105 -5
100 -10 -6 -5 -64 -11 -130 -13 -66 -2 -129 -9 -140 -16 -16 -9 2 -11 93 -12
73 0 111 -4 107 -10 -4 -6 -53 -10 -115 -10 -60 0 -111 -4 -115 -10 -3 -5 33
-11 92 -13 l98 -3 -112 -2 c-92 -2 -118 -6 -145 -22 l-33 -20 105 0 c65 0 100
-4 95 -9 -6 -6 -66 -12 -135 -15 -69 -3 -195 -10 -280 -14 l-155 -8 250 -2
c240 -3 249 -3 220 -20 l-30 -16 35 -6 35 -6 -40 -21 -40 -22 70 -1 c49 0 66
-3 55 -10 -8 -5 -49 -10 -90 -11 -41 -1 -106 -5 -145 -9 -65 -6 -60 -7 55 -9
l125 -2 -45 -24 -45 -24 80 -3 80 -3 -30 -17 -30 -17 44 -1 45 0 -50 -32 c-27
-17 -93 -51 -147 -75 -54 -24 -148 -61 -210 -82 -62 -21 -161 -50 -222 -64
-60 -14 -158 -33 -216 -42 -59 -8 -130 -15 -159 -15 -47 0 -52 2 -47 20 3 11
1 23 -4 26 -5 3 -9 23 -9 44 0 21 -4 41 -9 44 -5 3 -12 21 -15 40 -4 19 -15
45 -26 59 -11 13 -17 27 -14 29 2 3 -2 11 -11 18 -8 7 -15 20 -15 29 0 10 -12
26 -27 37 -16 11 -48 26 -73 34 -44 15 -45 15 -15 20 30 6 30 6 5 13 -14 4
-47 7 -75 8 -27 0 -70 4 -95 8 l-45 8 49 2 c27 0 47 3 44 6 -3 4 -138 12 -299
20 -162 8 -327 19 -367 25 -41 5 -86 17 -100 25 -24 13 -8 14 173 17 l200 2
-150 8 c-82 4 -184 10 -225 13 -41 4 -79 11 -85 16 -5 5 10 9 40 9 l50 0 -33
20 c-18 11 -51 21 -75 21 -38 1 -39 2 -12 8 25 5 27 8 12 14 -10 4 -27 7 -38
7 -10 0 -19 4 -19 9 0 5 12 11 28 14 l27 4 -32 7 -32 8 1 87 c0 52 5 94 13
106 7 11 16 35 19 52 4 18 16 50 27 72 10 22 19 47 19 56 0 8 3 15 8 15 4 0
13 15 21 33 8 17 25 47 39 66 l25 34 17 -23 c11 -15 23 -20 36 -16 11 4 42 50
76 114 31 59 66 132 78 162 12 30 36 71 54 90 19 19 45 55 59 80 14 25 28 55
32 68 5 19 3 22 -19 22 -14 0 -40 8 -59 19 -18 10 -64 27 -102 37 -50 13 -102
18 -185 17 -64 -1 -177 -11 -255 -23 -77 -12 -165 -26 -195 -31 -30 -6 -93
-14 -140 -19 -47 -4 -268 -9 -492 -9 -225 -1 -408 1 -408 5 0 3 19 33 42 67
23 34 71 97 107 141 36 43 113 119 170 169 58 49 154 122 215 162 61 40 158
98 216 129 58 30 153 75 211 100 58 24 163 63 233 85 70 23 182 55 249 71 67
16 162 36 211 45 50 8 144 22 210 30 104 13 124 18 141 38 12 14 85 50 185 90
142 58 174 67 226 67 l61 0 6 -53 c3 -29 12 -70 21 -90 15 -37 16 -37 73 -37
32 0 113 -7 179 -15 66 -8 160 -22 210 -30 49 -8 153 -31 232 -51 78 -19 195
-53 260 -75 64 -22 164 -61 222 -86 58 -24 147 -68 199 -96 l94 -52 -54 -13
c-30 -8 -66 -16 -81 -19 -15 -3 -33 -11 -39 -19 -6 -8 -17 -14 -23 -14 -6 0
-19 -8 -28 -19 -15 -18 -9 -18 191 -23 113 -3 208 -4 209 -2 2 1 -32 27 -77
56 -44 29 -81 58 -81 63 0 6 11 20 25 33 15 15 26 38 29 65 2 23 8 74 13 114
l9 72 -181 60 c-99 33 -232 74 -295 90 -63 17 -171 42 -239 56 -68 14 -167 32
-220 40 -53 8 -157 22 -231 31 -87 10 -246 17 -445 19z"/>
<path d="M5406 8736 l-33 38 -46 -46 c-30 -31 -50 -61 -57 -90 -7 -23 -19 -51
-27 -60 -12 -13 -31 -18 -70 -18 l-53 0 0 -45 c0 -25 -3 -45 -6 -45 -3 0 -18
9 -33 19 l-27 20 -72 -40 c-39 -22 -90 -57 -112 -78 -32 -30 -40 -45 -40 -73
0 -20 10 -50 23 -69 12 -18 38 -44 56 -56 19 -13 44 -23 57 -23 14 0 56 27
104 65 l80 65 30 -42 c17 -22 30 -48 30 -56 0 -9 -23 -37 -51 -63 -28 -26 -48
-52 -45 -58 4 -6 22 -11 39 -11 18 0 75 7 127 15 52 8 112 19 132 25 21 6 50
21 64 33 23 20 27 34 35 112 4 49 15 106 25 126 9 21 14 45 11 54 -4 8 -27 27
-52 42 -24 15 -47 33 -49 40 -3 6 2 30 11 52 15 37 15 44 -1 85 -9 24 -32 61
-50 82z"/>
<path d="M8062 5530 c-5 41 -10 65 -11 52 0 -12 -10 -48 -21 -80 -11 -33 -33
-69 -50 -84 -20 -18 -30 -37 -30 -56 0 -15 -12 -51 -26 -80 -14 -28 -41 -65
-60 -81 -19 -17 -46 -34 -60 -37 -14 -4 -30 -2 -37 5 -6 6 -29 11 -50 11 -22
0 -57 -5 -78 -12 -22 -6 -39 -17 -39 -24 0 -8 26 -30 58 -51 37 -25 63 -51 76
-77 13 -26 19 -59 18 -106 0 -47 -7 -83 -21 -116 -12 -26 -33 -62 -46 -80 -22
-29 -24 -38 -19 -96 4 -36 1 -88 -6 -122 -8 -42 -21 -68 -41 -89 -20 -20 -35
-27 -49 -22 -15 5 -18 3 -14 -9 3 -9 8 -16 9 -16 2 0 68 31 147 69 79 37 151
78 161 90 9 12 17 26 17 31 0 6 4 10 8 10 5 0 16 19 26 43 10 23 21 51 26 62
5 11 20 58 33 105 14 47 30 114 36 150 6 36 15 115 20 175 6 61 15 166 21 235
7 82 8 151 2 200z"/>
<path d="M7311 4300 c-15 0 -32 -5 -39 -12 -7 -7 -12 -20 -12 -30 0 -10 3 -18
7 -18 4 0 27 7 50 16 35 13 41 20 32 30 -6 8 -23 14 -38 14z"/>
</g>
<g transform="translate(0.000000,768.000024) scale(0.075000,-0.075000)"
fill="#6eb9d2" stroke="none">
<path d="M5151 10139 c-58 0 -86 -9 -228 -68 -93 -38 -169 -76 -180 -89 -15
-19 -36 -24 -139 -37 -66 -8 -160 -22 -210 -30 -49 -9 -144 -29 -211 -45 -67
-16 -179 -48 -249 -71 -70 -22 -175 -61 -233 -85 -58 -25 -153 -70 -211 -100
-58 -31 -155 -89 -216 -129 -61 -40 -157 -113 -215 -162 -57 -50 -134 -126
-170 -169 -36 -44 -84 -107 -107 -141 -23 -34 -42 -64 -42 -67 0 -4 183 -6
408 -5 224 0 445 5 492 9 47 5 110 13 140 19 30 5 118 19 195 31 78 12 191 22
255 23 83 1 135 -4 185 -17 38 -10 84 -27 102 -37 19 -11 45 -19 59 -19 22 0
24 -3 19 -22 -4 -13 -18 -43 -32 -68 -14 -25 -40 -61 -59 -80 -18 -19 -42 -60
-54 -90 -12 -30 -47 -103 -78 -162 -34 -64 -65 -110 -76 -114 -13 -4 -25 1
-36 16 l-17 23 -25 -34 c-14 -19 -31 -49 -39 -66 -8 -18 -17 -33 -21 -33 -5 0
-8 -7 -8 -15 0 -9 -9 -34 -19 -56 -11 -22 -23 -54 -27 -72 -3 -17 -12 -41 -19
-52 -8 -12 -13 -54 -13 -106 l-1 -87 32 -8 32 -7 -27 -4 c-16 -3 -28 -9 -28
-14 0 -5 9 -9 19 -9 11 0 28 -3 38 -7 15 -6 13 -9 -12 -14 -27 -6 -26 -7 12
-8 24 0 57 -10 75 -21 l33 -20 -50 0 c-30 0 -45 -4 -40 -9 6 -5 44 -12 85 -16
41 -3 143 -9 225 -13 l150 -8 -200 -2 c-181 -3 -197 -4 -173 -17 14 -8 59 -20
100 -25 40 -6 205 -17 367 -25 161 -8 296 -16 299 -20 3 -3 -17 -6 -44 -6
l-49 -2 45 -8 c25 -4 68 -8 95 -8 28 -1 61 -4 75 -8 25 -7 25 -7 -5 -13 -30
-5 -29 -5 15 -20 25 -8 57 -23 73 -34 15 -11 27 -27 27 -37 0 -9 7 -22 15 -29
9 -7 13 -15 11 -18 -3 -2 3 -16 14 -29 11 -14 22 -40 26 -59 3 -19 10 -37 15
-40 5 -3 9 -23 9 -44 0 -21 4 -41 9 -44 5 -3 7 -15 4 -26 -5 -18 0 -20 47 -20
29 0 100 7 159 15 58 9 156 28 216 42 61 14 160 43 222 64 62 21 156 58 210
82 54 24 120 58 147 75 l50 32 -45 0 -44 1 30 17 30 17 -80 3 -80 3 45 24 45
24 -125 2 c-115 2 -120 3 -55 9 39 4 104 8 145 9 41 1 82 6 90 11 11 7 -6 10
-55 10 l-70 1 40 22 40 21 -35 6 -35 6 30 16 c29 17 20 17 -220 20 l-250 2
155 8 c85 4 211 11 280 14 69 3 129 9 135 15 5 5 -30 9 -95 9 l-105 0 33 20
c27 16 53 20 145 22 l112 2 -98 3 c-59 2 -95 8 -92 13 4 6 55 10 115 10 62 0
111 4 115 10 4 6 -34 10 -107 10 -91 1 -109 3 -93 12 11 7 74 14 140 16 66 2
124 8 130 13 5 5 -36 9 -100 10 -78 1 -100 3 -77 9 19 4 39 13 45 19 8 8 6 11
-7 11 -16 0 -15 3 7 20 14 11 34 20 45 20 11 0 33 11 49 24 26 22 38 24 160
27 114 4 134 7 153 24 l22 20 -123 5 -124 6 132 2 133 2 -10 26 c-6 14 -10 42
-10 62 0 23 12 56 30 87 16 28 30 59 30 70 0 11 -11 30 -24 43 -14 12 -97 56
-185 97 -88 41 -173 83 -188 95 -16 11 -54 25 -85 32 -45 9 -60 9 -72 -1 -11
-9 -13 -19 -5 -37 5 -14 9 -32 9 -39 0 -8 -6 -12 -14 -9 -8 3 -48 -17 -88 -45
-41 -27 -99 -62 -129 -75 -30 -14 -61 -26 -69 -26 -8 0 -74 -18 -147 -41
l-132 -41 -53 38 c-30 21 -84 77 -122 124 -37 47 -68 90 -68 95 -1 6 12 26 28
47 l29 36 127 4 c85 2 131 7 140 16 10 10 7 17 -12 36 -14 14 -76 50 -138 81
-66 32 -112 61 -109 68 2 7 22 16 45 21 23 6 42 13 42 18 0 4 100 8 223 8 122
0 249 4 282 10 33 5 76 16 95 24 19 8 68 25 108 37 39 12 72 25 73 28 0 3 3
15 5 26 3 11 6 33 7 49 2 15 -3 34 -10 41 -7 8 -13 21 -13 29 0 9 -4 16 -9 16
-4 0 -16 19 -25 43 -9 23 -16 68 -16 99 l0 56 -46 7 c-26 3 -56 10 -68 14 -18
7 -15 9 19 14 22 4 64 9 94 13 33 4 59 13 69 25 9 10 22 19 28 19 6 0 17 6 23
14 6 8 24 16 39 19 15 3 51 11 81 19 l54 13 -94 52 c-52 28 -141 72 -199 96
-58 25 -158 64 -222 86 -65 22 -182 56 -260 75 -79 20 -183 43 -232 51 -50 8
-144 22 -210 30 -66 8 -147 15 -179 15 -57 0 -58 0 -73 37 -9 20 -18 61 -21
90 l-6 53 -66 -1z m255 -1403 c18 -21 41 -58 50 -82 16 -41 16 -48 1 -85 -9
-22 -14 -46 -11 -52 2 -7 25 -25 49 -40 25 -15 48 -34 52 -42 3 -9 -2 -33 -11
-54 -10 -20 -21 -77 -25 -126 -8 -78 -12 -92 -35 -112 -14 -12 -43 -27 -64
-33 -20 -6 -80 -17 -132 -25 -52 -8 -109 -15 -127 -15 -17 0 -35 5 -39 11 -3
6 17 32 45 58 28 26 51 54 51 63 0 8 -13 34 -30 56 l-30 42 -80 -65 c-48 -38
-90 -65 -104 -65 -13 0 -38 10 -57 23 -18 12 -44 38 -56 56 -13 19 -23 49 -23
69 0 28 8 43 40 73 22 21 73 56 112 78 l72 40 27 -20 c15 -10 30 -19 33 -19 3
0 6 20 6 45 l0 45 53 0 c39 0 58 5 70 18 8 9 20 37 27 60 7 29 27 59 57 90
l46 46 33 -38z"/>
<path d="M4283 8919 c-43 -1 -89 -4 -101 -8 -23 -6 -22 -7 19 -37 l43 -31 58
35 c32 19 58 36 58 38 0 2 -35 4 -77 3z"/>
<path d="M4962 7236 c-6 20 -16 13 -101 -67 -51 -49 -126 -111 -167 -138 -40
-27 -98 -59 -129 -70 -31 -12 -78 -21 -105 -21 -31 0 -91 14 -157 36 -93 31
-117 36 -173 31 -36 -2 -94 -15 -130 -27 -36 -12 -94 -38 -130 -57 -36 -18
-74 -40 -85 -49 -19 -14 -19 -15 4 -58 12 -25 44 -68 69 -96 l47 -52 59 36
c33 20 84 45 113 56 29 11 111 27 181 35 70 9 147 21 172 27 25 6 73 23 106
38 34 15 89 47 123 70 34 22 88 62 119 88 31 25 50 37 43 26 -8 -10 -33 -39
-55 -63 l-41 -43 45 27 c25 15 67 44 94 63 26 20 61 53 77 75 20 28 29 51 28
76 -1 20 -4 46 -7 57z"/>
<path d="M6000 4720 c-13 7 -10 -22 19 -176 l35 -185 26 6 c14 3 38 20 54 37
26 28 28 36 23 83 -3 29 -13 68 -22 86 -10 18 -40 57 -69 87 -28 29 -58 58
-66 62z"/>
<path d="M8988 4300 c-1 0 -17 -54 -35 -119 -17 -66 -57 -186 -89 -268 -31
-81 -85 -206 -120 -278 -34 -71 -86 -170 -114 -220 -29 -49 -79 -132 -112
-182 l-60 -93 82 -140 c45 -77 85 -142 89 -145 5 -2 16 15 25 38 10 23 35 88
56 144 21 56 57 162 79 235 22 73 51 178 65 233 13 55 38 170 55 255 17 85 39
218 50 295 11 77 23 164 26 193 4 28 5 52 3 52z"/>
</g>
<g transform="translate(0.000000,768.000024) scale(0.075000,-0.075000)"
fill="#010632" stroke="none">
<path d="M5200 10235 c-179 1 -345 1 -370 -1 -25 -2 -115 -11 -200 -20 -85 -8
-220 -26 -300 -40 -80 -14 -194 -36 -255 -50 -60 -14 -180 -45 -265 -69 -85
-25 -224 -70 -308 -100 -84 -31 -224 -87 -310 -126 -86 -38 -224 -106 -307
-151 -82 -44 -211 -118 -285 -165 -74 -47 -182 -119 -240 -160 -58 -42 -157
-118 -220 -168 -63 -51 -173 -146 -245 -212 -71 -66 -167 -160 -213 -209 -45
-49 -81 -94 -80 -101 2 -6 37 -51 78 -98 41 -48 92 -102 115 -120 35 -29 51
-34 130 -44 62 -7 104 -7 135 0 24 6 92 17 150 25 60 9 177 15 275 15 104 0
215 -6 285 -16 63 -9 152 -25 198 -35 l82 -18 21 29 20 29 -64 0 c-35 0 -104
7 -153 16 -49 9 -132 21 -184 28 -53 7 -101 15 -108 20 -6 4 -12 13 -12 20 0
8 -14 16 -31 20 -17 3 -41 6 -54 6 -12 0 -69 15 -126 33 -94 30 -122 45 -280
154 l-177 120 -44 -41 c-24 -22 1 3 56 57 56 54 159 146 229 205 71 59 185
148 253 198 69 49 189 130 267 179 78 49 233 136 345 193 111 57 286 137 387
177 102 41 251 95 331 120 81 25 199 59 263 74 64 16 162 39 219 50 57 12 162
30 235 41 73 11 184 25 247 32 71 8 245 13 455 13 261 -1 375 -5 490 -18 83
-10 192 -25 242 -33 51 -8 148 -26 215 -39 68 -14 175 -39 238 -56 63 -16 196
-57 295 -90 l181 -60 -9 -72 c-5 -40 -11 -91 -13 -114 -3 -27 -14 -50 -29 -65
-14 -13 -25 -27 -24 -33 0 -5 42 -38 93 -72 58 -39 104 -63 121 -63 15 0 75
-7 134 -15 58 -9 183 -31 276 -50 94 -19 238 -53 320 -76 83 -22 206 -59 275
-81 68 -22 159 -55 202 -73 43 -18 78 -31 78 -29 0 2 -59 51 -132 109 -73 58
-191 145 -263 194 -71 48 -188 123 -259 165 -71 43 -204 115 -295 161 -91 46
-225 108 -298 138 -72 31 -196 78 -275 105 -79 27 -199 66 -268 85 -69 20
-174 47 -235 61 -60 14 -164 34 -230 46 -66 11 -194 30 -285 41 -126 16 -241
21 -490 24z"/>
<path d="M6980 9254 l-35 7 30 -26 c17 -14 91 -56 165 -94 132 -66 136 -69
183 -136 l47 -69 -22 -13 c-21 -12 -18 -13 27 -9 28 3 105 8 173 12 l123 7
-23 24 c-13 14 -49 43 -82 65 -32 22 -95 57 -140 78 -44 21 -115 50 -156 65
-41 15 -115 39 -165 55 -49 15 -106 31 -125 34z"/>
<path d="M4222 8799 c-13 7 -29 1 -67 -26 -28 -20 -84 -71 -126 -114 -43 -43
-102 -115 -132 -161 -30 -46 -69 -112 -87 -148 -18 -35 -49 -116 -70 -180 -21
-63 -41 -136 -45 -161 -6 -37 -2 -55 15 -90 13 -24 41 -71 63 -104 23 -33 66
-85 96 -115 31 -31 72 -67 91 -80 29 -20 25 -14 -22 38 -31 34 -71 92 -90 129
-26 52 -34 83 -36 138 -2 41 3 98 12 137 8 36 35 111 59 165 24 54 56 118 71
142 25 40 30 43 61 38 32 -5 36 -2 116 100 46 57 94 119 107 136 13 20 22 46
22 70 0 21 -5 47 -10 57 -6 11 -18 24 -28 29z"/>
<path d="M6885 8730 c-12 0 -33 -13 -47 -29 -14 -15 -32 -39 -40 -52 -8 -13
-14 -30 -13 -36 2 -7 4 -14 5 -15 1 -2 3 -21 5 -43 1 -22 3 -43 4 -46 0 -4 19
-14 42 -23 22 -9 51 -29 64 -44 14 -15 24 -36 25 -47 0 -11 -14 -42 -30 -70
-20 -34 -30 -64 -30 -92 0 -27 11 -62 33 -104 19 -38 46 -72 66 -86 19 -13 40
-23 47 -23 8 0 14 6 14 13 0 8 9 22 19 31 12 11 31 16 53 14 26 -2 33 -7 32
-23 -1 -11 -9 -36 -17 -57 l-16 -36 43 -46 c24 -25 55 -48 68 -51 13 -3 36 -1
52 4 15 6 29 11 32 11 2 0 4 -12 4 -26 0 -15 12 -38 29 -55 16 -16 36 -29 45
-29 8 0 36 -20 61 -45 38 -39 45 -51 45 -85 0 -22 4 -40 9 -40 5 0 14 23 20
50 6 28 11 63 11 78 0 20 3 23 10 12 7 -12 12 -12 29 4 11 10 28 39 37 65 8
25 22 60 29 77 8 18 28 48 45 68 18 20 39 36 47 36 12 0 13 -8 8 -40 -6 -34
-3 -43 19 -63 15 -14 48 -31 74 -38 26 -8 85 -14 132 -13 64 0 96 5 132 21 38
17 52 31 73 74 l27 52 70 -69 c38 -38 102 -109 142 -159 40 -49 97 -126 126
-170 29 -44 57 -84 63 -90 5 -5 4 1 -3 15 -7 14 -41 68 -76 120 -35 52 -94
133 -131 180 -37 47 -115 133 -173 191 -58 58 -151 142 -207 187 -56 44 -146
110 -200 145 -54 35 -145 90 -202 122 -57 31 -149 77 -204 102 -56 25 -149 62
-207 84 -58 22 -143 51 -190 64 -46 14 -94 25 -105 25z"/>
<path d="M5008 7475 c-11 11 -24 7 -79 -23 l-66 -37 25 -32 26 -31 54 30 54
31 -5 -74 c-3 -41 -7 -83 -9 -94 -2 -11 -7 -26 -12 -33 -4 -6 -4 -12 1 -12 4
0 0 -5 -10 -11 -9 -6 -15 -15 -12 -20 4 -5 -3 -24 -14 -42 -11 -17 -37 -49
-58 -69 -21 -20 -139 -100 -263 -178 -124 -78 -272 -175 -330 -215 -58 -41
-135 -99 -172 -129 -37 -31 -74 -69 -83 -86 -14 -27 -13 -36 5 -102 10 -40 28
-127 39 -193 11 -66 21 -138 22 -160 1 -22 2 -90 1 -152 l-2 -112 -92 44 c-51
24 -133 56 -183 70 -49 14 -108 28 -131 32 -31 4 -57 -2 -119 -27 -43 -18
-101 -52 -129 -75 -28 -23 -61 -59 -74 -81 -12 -21 -31 -68 -43 -104 -12 -37
-21 -92 -21 -127 0 -35 8 -88 17 -120 9 -31 28 -80 42 -108 14 -27 45 -75 68
-105 24 -30 63 -73 87 -96 23 -22 66 -59 93 -81 28 -22 89 -66 137 -97 48 -32
135 -80 192 -107 57 -27 146 -60 198 -73 51 -13 122 -25 158 -26 36 -2 97 -2
135 0 l70 3 -100 8 c-55 4 -135 17 -178 28 -44 11 -122 40 -175 63 -54 23
-149 77 -212 119 -63 43 -144 104 -180 137 -36 33 -82 85 -104 115 -21 31 -49
83 -62 116 -13 33 -27 86 -30 118 -4 39 -1 79 10 123 10 38 32 87 54 119 24
34 58 66 95 89 51 32 68 36 140 40 52 3 110 -2 159 -12 42 -9 92 -16 110 -16
19 0 54 10 78 23 33 16 51 34 68 67 17 34 22 61 22 121 0 42 -9 132 -21 200
-13 74 -19 145 -16 175 3 28 15 70 26 92 12 23 35 57 52 77 17 19 70 63 117
98 48 35 186 129 307 209 126 83 244 169 276 201 30 31 70 83 88 117 20 37 35
82 38 114 3 30 3 70 -1 89 -4 19 -17 51 -30 70 -13 19 -26 52 -29 72 -3 21
-11 43 -19 50z"/>
<path d="M8710 7252 c-22 45 -37 74 -34 63 4 -11 13 -38 22 -60 8 -22 15 -63
16 -92 1 -44 -3 -56 -28 -82 -26 -27 -27 -32 -15 -49 8 -11 33 -44 56 -73 23
-30 67 -94 97 -143 31 -49 56 -86 56 -82 0 4 -11 51 -25 104 -13 54 -42 150
-64 214 -22 64 -59 154 -81 200z"/>
<path d="M6523 7270 c-6 0 -22 -9 -35 -20 -14 -10 -31 -33 -38 -50 -7 -18 -11
-54 -8 -90 3 -46 11 -69 35 -102 16 -24 36 -60 43 -82 7 -23 10 -59 6 -91 -3
-28 -12 -65 -20 -81 -8 -16 -19 -41 -25 -56 -7 -20 -17 -28 -33 -28 -13 1 -33
6 -44 13 -12 7 -45 41 -74 75 l-52 64 -32 -30 c-17 -16 -42 -36 -56 -45 -13
-10 -28 -17 -32 -17 -5 0 -8 29 -8 64 l0 63 -79 36 c-44 20 -113 48 -154 62
-44 14 -98 25 -130 25 -40 0 -61 -6 -81 -21 -15 -11 -36 -40 -48 -62 -13 -27
-23 -68 -26 -112 -3 -50 0 -81 11 -108 9 -21 30 -45 46 -55 17 -9 33 -22 35
-28 3 -7 -4 -40 -15 -75 -14 -44 -19 -78 -15 -107 3 -24 20 -71 38 -103 22
-42 67 -95 154 -178 87 -84 140 -128 185 -150 34 -17 74 -31 89 -31 15 0 46
14 68 30 23 17 46 30 51 30 5 0 15 -16 21 -35 8 -26 8 -40 -1 -57 -6 -13 -43
-55 -80 -95 -38 -39 -78 -91 -88 -115 -11 -23 -23 -70 -26 -103 -4 -34 -2 -95
5 -140 7 -44 21 -99 32 -123 11 -23 32 -51 46 -62 13 -11 31 -20 38 -20 7 0
15 9 19 20 3 11 18 29 32 40 15 12 41 20 63 20 23 0 43 -7 53 -18 10 -10 17
-26 17 -35 0 -8 -23 -44 -50 -78 -28 -35 -53 -74 -57 -86 -3 -15 1 -31 11 -42
9 -9 19 -33 22 -52 4 -19 15 -50 26 -70 11 -20 33 -44 50 -54 23 -13 42 -16
78 -12 44 5 47 4 43 -14 -5 -17 -15 -19 -80 -19 -47 0 -85 -6 -103 -15 -17 -9
-39 -33 -50 -54 -12 -25 -29 -41 -45 -45 -16 -4 -64 3 -123 20 -53 14 -108 32
-122 39 -14 7 -61 25 -105 39 -44 14 -84 26 -90 26 -5 -1 18 -14 51 -29 34
-16 90 -48 125 -72 35 -23 85 -60 110 -81 25 -21 60 -58 77 -82 18 -24 39 -70
47 -102 8 -32 15 -81 15 -109 0 -30 -6 -60 -16 -73 -9 -13 -33 -34 -54 -47
-23 -14 -79 -32 -137 -44 -55 -11 -123 -29 -153 -41 -29 -11 -74 -33 -99 -48
-25 -14 -86 -53 -135 -85 -68 -46 -91 -56 -97 -45 -5 7 -12 28 -15 46 -4 19
-2 44 4 57 8 17 -39 -11 -161 -96 -95 -66 -208 -137 -252 -158 -44 -21 -109
-48 -145 -61 -36 -13 -70 -29 -77 -37 -6 -8 -65 -25 -130 -39 -65 -13 -183
-31 -263 -39 -80 -8 -181 -20 -224 -25 -44 -6 -95 -18 -115 -27 -20 -10 -45
-32 -57 -50 -12 -18 -25 -29 -30 -25 -5 4 -4 2 1 -4 6 -6 64 -45 130 -86 66
-41 176 -106 245 -144 69 -38 184 -97 255 -131 72 -33 187 -81 255 -106 69
-25 168 -57 220 -71 52 -14 149 -35 215 -46 66 -12 183 -24 260 -27 83 -3 185
-1 250 6 61 7 149 21 197 31 48 10 136 35 195 55 60 20 158 61 220 91 61 30
165 90 230 134 65 43 171 124 236 180 64 56 165 153 223 217 58 64 137 157
176 207 39 50 101 134 139 187 38 53 84 124 104 157 19 34 40 64 46 68 6 4 15
1 19 -6 5 -7 6 -29 3 -49 -2 -20 -9 -61 -15 -91 -5 -30 -36 -167 -69 -303 -59
-247 -60 -248 -41 -272 l19 -24 65 67 c36 37 84 97 108 132 23 36 59 101 80
145 21 44 54 125 73 180 19 55 48 159 65 230 17 72 40 193 51 270 11 77 25
201 31 274 5 74 10 212 9 305 0 94 -4 189 -8 211 -6 35 -8 28 -15 -55 -4 -52
-11 -142 -17 -200 -5 -58 -14 -134 -20 -170 -6 -36 -22 -103 -36 -150 -13 -47
-28 -94 -33 -105 -5 -11 -16 -39 -26 -62 -10 -24 -21 -43 -26 -43 -4 0 -8 -4
-8 -10 0 -5 -8 -19 -17 -31 -10 -12 -82 -53 -161 -90 -79 -38 -145 -69 -147
-69 -1 0 -6 7 -9 16 -4 12 -1 14 14 9 14 -5 29 2 49 22 20 21 33 47 41 89 7
34 10 86 6 122 -5 58 -3 67 19 96 13 18 34 54 46 80 14 33 21 69 21 116 1 47
-5 80 -18 106 -13 26 -39 52 -76 77 -32 21 -58 43 -58 51 0 7 17 18 39 24 21
7 56 12 78 12 21 0 44 -5 50 -11 7 -7 23 -9 37 -5 14 3 41 20 60 37 19 16 46
53 60 81 14 29 26 65 26 81 0 19 9 36 26 50 14 11 35 41 46 66 11 25 24 85 29
133 7 71 6 97 -7 133 l-15 46 46 68 c25 38 55 90 66 116 11 25 18 53 15 61 -3
8 -12 14 -20 14 -8 0 -34 -21 -58 -46 -23 -25 -76 -68 -116 -95 -41 -27 -82
-49 -93 -49 -10 0 -19 5 -19 10 0 6 38 51 85 101 47 50 85 98 85 106 0 11 -7
14 -26 9 -14 -4 -67 -25 -117 -48 -51 -22 -109 -56 -131 -75 -21 -19 -53 -41
-72 -49 -18 -8 -47 -14 -63 -14 -16 0 -41 4 -54 9 -16 6 -26 20 -30 39 -3 17
-16 40 -29 52 -12 11 -41 26 -63 31 l-41 10 10 50 c7 35 7 55 0 67 -6 9 -25
22 -42 27 -17 6 -39 18 -50 28 -10 9 -24 34 -30 55 -6 20 -14 62 -17 92 -5 42
-3 60 9 75 15 19 15 19 16 -7 0 -17 8 -31 19 -38 11 -5 33 -10 49 -10 16 0 37
8 46 19 9 10 19 35 23 54 5 31 1 41 -24 65 -18 19 -45 32 -70 37 -32 5 -53 2
-89 -14 -25 -12 -54 -21 -64 -21 -10 0 -23 6 -29 14 -7 8 -11 27 -9 43 2 22
12 33 46 48 23 12 49 31 58 43 8 12 15 39 16 61 0 21 -5 48 -11 59 -6 12 -23
25 -37 28 -23 6 -24 8 -9 23 8 10 15 26 15 37 0 11 -11 36 -25 54 -14 19 -44
47 -67 63 -23 15 -51 30 -63 33 -15 4 -25 18 -33 50 -7 24 -28 62 -49 85 -21
23 -56 50 -78 60 -22 10 -51 19 -65 19 -14 0 -43 -11 -65 -25 -22 -13 -53 -25
-68 -25 -15 0 -61 18 -101 40 -40 22 -77 40 -83 40z m788 -2970 c15 0 32 -6
38 -14 9 -10 3 -17 -32 -30 -23 -9 -46 -16 -50 -16 -4 0 -7 8 -7 18 0 10 5 23
12 30 7 7 24 12 39 12z"/>
<path d="M8517 6714 c-12 16 -14 16 -40 -4 -15 -12 -42 -24 -61 -27 -25 -4
-44 0 -70 17 -32 19 -37 20 -42 5 -4 -9 -2 -27 4 -40 10 -21 8 -24 -15 -27
-15 -2 -28 -8 -30 -14 -2 -6 13 -14 34 -17 21 -4 47 -13 58 -21 19 -14 19 -15
-8 -20 -15 -3 -39 -8 -53 -11 -14 -3 -37 -18 -50 -32 -22 -24 -28 -26 -54 -16
-25 9 -32 8 -41 -5 -7 -12 -12 -14 -15 -4 -3 7 -24 12 -49 12 -24 0 -55 -4
-69 -10 -21 -8 -26 -16 -26 -45 0 -21 8 -43 19 -54 16 -16 26 -18 58 -10 21 5
44 9 51 9 7 0 12 -13 12 -30 0 -24 -6 -33 -32 -44 l-33 -14 48 -21 c27 -11 66
-24 87 -27 25 -4 41 -2 49 7 7 8 21 28 31 44 11 17 25 38 32 47 10 14 9 23 -4
46 -16 26 -16 30 -2 44 9 9 17 27 17 40 2 24 3 25 89 21 80 -4 87 -2 102 19
11 15 16 45 16 93 0 42 -5 78 -13 89z"/>
<path d="M8486 5667 c-1 2 -8 -15 -15 -38 -7 -23 -23 -52 -36 -65 -19 -19 -35
-24 -72 -24 -26 1 -67 5 -90 9 -23 5 -45 6 -48 3 -2 -3 12 -26 33 -51 20 -25
60 -92 89 -149 l51 -104 15 54 c9 29 23 80 31 113 8 33 22 102 30 154 9 52 14
96 12 98z"/>
</g>
<g transform="translate(0.000000,768.000024) scale(0.075000,-0.075000)"
fill="#f59909" stroke="none">
<path d="M6572 9449 c-59 -1 -143 -5 -186 -10 -43 -5 -84 -10 -90 -12 -6 -2 9
-7 34 -11 25 -4 145 -30 266 -57 122 -27 297 -71 390 -98 93 -27 214 -66 269
-85 55 -20 145 -59 200 -86 55 -26 127 -70 159 -97 33 -26 60 -53 60 -58 1 -6
-60 -13 -149 -17 -82 -4 -208 -14 -280 -23 -71 -9 -177 -26 -235 -36 -58 -11
-154 -32 -215 -46 l-110 -26 123 -28 c68 -16 189 -50 270 -78 81 -27 197 -70
257 -96 61 -25 157 -72 215 -102 58 -31 141 -79 185 -106 44 -28 130 -88 190
-132 61 -45 144 -113 187 -151 42 -38 116 -112 164 -164 48 -52 118 -135 155
-185 37 -49 93 -130 124 -180 31 -49 85 -148 120 -220 35 -71 80 -174 100
-228 20 -54 51 -151 69 -215 19 -64 37 -137 41 -162 7 -44 5 -42 -53 55 -33
55 -90 136 -125 181 -36 44 -86 97 -111 118 -25 20 -65 48 -88 61 -24 14 -48
25 -54 25 -8 0 -5 -22 7 -67 11 -38 28 -120 39 -183 10 -63 24 -167 30 -230 6
-63 11 -226 11 -361 0 -135 -5 -304 -11 -375 -6 -71 -15 -165 -21 -209 -5 -44
-16 -118 -25 -165 -8 -47 -23 -123 -34 -170 -11 -47 -26 -104 -33 -128 -7 -24
-17 -43 -21 -43 -5 0 -24 35 -42 78 -19 43 -50 101 -70 130 -20 29 -56 70 -80
93 -24 22 -65 54 -91 70 -26 17 -50 30 -53 30 -4 0 -3 -28 1 -62 5 -35 13
-151 19 -258 9 -144 9 -247 1 -392 -6 -108 -18 -252 -27 -320 -9 -67 -29 -188
-46 -268 -16 -80 -47 -198 -69 -262 -21 -65 -57 -156 -78 -202 -21 -46 -60
-117 -86 -157 -26 -40 -71 -98 -102 -130 -30 -31 -72 -69 -93 -84 l-38 -26 84
-144 c46 -79 84 -149 84 -157 0 -7 -22 -51 -49 -98 l-48 -85 318 -3 c176 -1
319 -5 319 -8 0 -4 -23 -52 -52 -108 -46 -90 -65 -114 -168 -216 -63 -63 -167
-154 -230 -201 -63 -48 -153 -111 -200 -141 -47 -30 -130 -80 -185 -110 -55
-31 -152 -79 -215 -108 -63 -29 -165 -72 -227 -96 -61 -24 -117 -44 -123 -44
-6 0 -10 -6 -8 -13 2 -7 97 -172 213 -365 115 -194 214 -352 220 -352 5 0 66
36 136 80 70 44 132 80 138 80 6 0 46 18 89 39 42 21 112 60 155 85 43 26 124
77 180 115 56 37 147 103 202 146 55 43 131 104 168 136 38 33 72 59 77 59 4
0 20 -21 35 -46 l27 -46 110 108 c60 60 151 159 202 219 51 61 123 149 159
197 37 48 107 147 155 220 49 73 124 194 167 267 43 74 122 225 176 335 53
111 129 280 167 376 38 97 97 260 131 364 34 104 84 275 111 380 27 105 58
232 69 281 11 50 32 153 46 229 14 75 34 194 45 264 10 70 26 190 35 267 9 77
23 219 31 315 8 96 17 333 20 525 3 193 2 377 -3 410 -8 56 -10 44 -56 -255
-27 -173 -52 -326 -57 -340 -5 -14 -9 -19 -9 -13 -1 7 -12 97 -26 200 -14 104
-46 316 -71 473 -25 157 -61 366 -80 465 -19 99 -55 261 -79 360 -24 99 -58
223 -76 275 -17 52 -65 173 -105 268 -41 95 -90 203 -109 241 -19 39 -57 108
-85 154 -27 47 -73 110 -101 141 -28 31 -55 56 -59 56 -4 0 10 -50 31 -110 21
-61 50 -156 65 -213 14 -56 32 -138 40 -182 8 -44 17 -129 21 -190 3 -60 3
-108 0 -105 -3 3 -39 73 -81 156 -41 83 -107 200 -147 260 -39 60 -104 150
-144 199 -39 50 -96 117 -126 149 -30 33 -99 100 -154 149 -55 49 -154 125
-220 170 -66 44 -174 106 -240 138 -66 31 -167 73 -225 92 -58 19 -168 53
-245 75 -77 23 -198 54 -270 71 -71 16 -164 37 -205 45 -41 8 -138 24 -215 35
-77 11 -198 25 -268 30 -70 6 -176 10 -235 10z m2429 -2387 c4 -10 17 -87 29
-171 12 -84 20 -154 18 -157 -2 -2 -10 20 -18 49 -7 28 -27 98 -45 154 l-32
101 21 21 c19 20 21 20 27 3z m-13 -2762 c2 0 1 -24 -3 -52 -3 -29 -15 -116
-26 -193 -11 -77 -33 -210 -50 -295 -17 -85 -42 -200 -55 -255 -14 -55 -43
-160 -65 -233 -22 -73 -58 -179 -79 -235 -21 -56 -46 -121 -56 -144 -9 -23
-20 -40 -25 -38 -4 3 -44 68 -89 145 l-82 140 60 93 c33 50 83 133 112 182 28
50 80 149 114 220 35 72 89 197 120 278 32 82 72 202 89 268 18 65 34 119 35
119z"/>
<path d="M1329 9290 c-4 0 -34 -29 -67 -65 -33 -36 -80 -96 -106 -135 -26 -38
-67 -107 -91 -152 -24 -46 -59 -123 -78 -173 -19 -49 -44 -123 -55 -162 -11
-40 -17 -73 -12 -73 4 0 93 33 197 74 103 40 236 92 294 115 l106 41 -62 123
c-34 68 -72 159 -83 203 -12 44 -25 108 -28 142 -4 34 -10 62 -15 62z"/>
<path d="M4185 8918 c-11 0 -63 -8 -115 -18 -52 -9 -139 -29 -192 -44 -54 -15
-139 -42 -190 -62 -51 -19 -144 -62 -208 -95 -63 -33 -128 -70 -144 -83 -20
-17 -25 -26 -16 -31 9 -5 11 -4 6 3 -4 7 -3 12 3 12 5 0 13 -6 18 -12 4 -7 8
-16 8 -20 0 -3 4 -10 9 -15 5 -5 6 -3 2 5 -4 6 -3 12 2 12 5 0 16 -8 25 -18
10 -10 14 -22 10 -27 -5 -4 -2 -5 5 -1 7 4 19 2 27 -4 8 -7 12 -17 8 -23 -3
-6 -1 -7 6 -3 6 4 18 2 26 -4 8 -7 13 -16 10 -20 -3 -5 0 -12 6 -16 8 -4 9 -3
5 4 -4 7 -3 12 2 12 5 0 16 -7 23 -17 8 -9 13 -18 11 -20 -2 -3 0 -8 4 -11 4
-4 4 -1 0 6 -4 6 -3 12 2 12 5 0 14 -6 20 -12 6 -7 10 -17 10 -21 0 -5 4 -12
8 -15 4 -4 4 -1 0 6 -4 6 -3 12 2 12 5 0 16 -8 25 -18 10 -10 14 -22 10 -27
-5 -4 -2 -5 5 -1 7 4 19 2 27 -4 8 -7 12 -17 8 -23 -3 -6 -1 -7 6 -3 6 4 18 2
26 -4 8 -7 12 -17 8 -23 -3 -6 -1 -7 6 -3 6 4 18 2 26 -4 8 -7 13 -16 10 -20
-3 -5 0 -12 6 -16 8 -5 9 -3 4 6 -5 8 -3 11 6 8 9 -3 31 27 66 94 28 54 68
122 89 151 21 28 72 87 114 130 41 44 104 102 140 130 36 28 69 54 73 57 4 4
-11 20 -34 36 -40 28 -41 29 -18 35 19 6 20 7 4 7z"/>
<path d="M2535 8434 c-82 3 -188 1 -235 -4 -47 -4 -125 -15 -175 -24 -49 -9
-115 -17 -145 -18 -52 -3 -55 -4 -61 -33 -3 -20 -10 -29 -20 -26 -8 2 -21 4
-29 4 -8 0 -34 0 -56 -1 -39 -2 -42 -4 -48 -37 -4 -19 -12 -35 -19 -35 -7 0
-18 4 -26 9 -10 6 -25 4 -42 -5 -16 -8 -52 -14 -82 -14 -53 0 -55 -1 -61 -31
-3 -17 -6 -37 -6 -44 0 -10 12 -9 53 5 28 10 68 25 88 34 l36 15 37 -38 38
-39 56 34 56 34 273 0 c150 0 273 -2 273 -5 0 -2 -11 -10 -25 -18 l-25 -13 34
-33 35 -34 38 30 c21 17 54 40 73 52 32 19 49 21 206 21 l171 0 47 70 c25 38
46 71 46 73 0 2 -35 12 -77 21 -43 9 -123 23 -178 31 -55 8 -167 17 -250 19z"/>
<path d="M2200 8129 c-14 -1 -46 -5 -72 -9 -27 -5 -76 -18 -111 -29 -35 -12
-72 -27 -81 -34 -15 -11 -14 -15 13 -41 l29 -28 35 26 c18 14 74 46 123 71 56
28 80 44 64 44z"/>
<path d="M831 7159 c-7 10 -10 6 -14 -15 -4 -16 -9 -60 -12 -99 l-7 -70 21 32
c11 17 29 50 41 72 l20 41 -20 20 c-11 11 -20 17 -20 13 0 -5 -4 -2 -9 6z"/>
<path d="M4828 7060 c-2 0 -15 -11 -28 -24 -14 -13 -61 -50 -105 -82 -44 -31
-109 -71 -145 -87 -36 -17 -76 -44 -90 -61 -14 -16 -32 -39 -40 -50 -14 -20
-13 -20 20 2 19 12 78 50 130 83 52 33 104 66 115 72 10 7 39 30 63 52 24 22
53 52 64 68 11 15 18 27 16 27z"/>
<path d="M571 6809 c-7 10 -11 1 -15 -30 -3 -24 -8 -71 -11 -104 l-5 -60 39
70 c22 39 40 73 41 78 0 4 -9 16 -20 27 -11 11 -20 17 -20 13 0 -5 -4 -2 -9 6z"/>
<path d="M779 6585 c-14 5 -18 -9 -29 -107 -6 -62 -10 -139 -8 -170 l3 -57 75
136 c41 75 76 139 78 143 1 4 -21 16 -50 28 -29 11 -60 23 -69 27z"/>
<path d="M4071 6262 c-5 14 -42 -18 -200 -176 l-193 -193 94 -22 c51 -12 143
-42 203 -67 61 -24 116 -47 123 -50 8 -4 12 5 13 27 1 19 1 86 0 149 -1 63 -9
160 -17 214 -9 55 -19 108 -23 118z"/>
<path d="M516 6270 c-2 0 -7 -28 -11 -63 -4 -35 -5 -73 -3 -86 2 -17 11 -7 41
48 l37 70 -29 16 c-17 8 -32 15 -35 15z"/>
<path d="M5550 4889 c-47 -1 -98 -4 -113 -6 -24 -4 -28 -8 -23 -26 2 -12 10
-53 17 -92 6 -38 15 -74 19 -78 4 -5 38 -15 76 -22 38 -8 101 -30 139 -49 39
-19 106 -65 150 -101 44 -36 106 -86 139 -110 32 -25 67 -45 77 -45 10 0 19 5
19 12 0 6 -14 83 -31 171 -16 88 -28 166 -25 174 4 9 -14 26 -50 49 -30 19
-86 49 -124 65 -38 16 -95 36 -126 44 -33 9 -95 14 -144 14z"/>
<path d="M7690 4270 c-5 0 -22 -19 -36 -42 -15 -24 -54 -83 -87 -133 -33 -49
-93 -134 -134 -187 -40 -54 -73 -101 -73 -104 0 -3 39 -72 87 -154 l87 -149
53 212 c29 117 66 278 83 358 16 80 30 157 30 172 0 15 -4 27 -10 27z"/>
</g>
<g transform="translate(0.000000,768.000024) scale(0.075000,-0.075000)"
fill="#b60b05" stroke="none">
<path d="M1125 7989 c-24 0 -92 -20 -167 -50 l-128 -50 0 -162 c0 -88 4 -157
8 -151 5 5 37 45 72 89 35 44 116 132 181 197 103 102 114 117 96 122 -12 3
-40 6 -62 5z"/>
<path d="M3686 7960 c-2 0 -9 -51 -16 -113 -9 -75 -11 -185 -7 -327 3 -136 13
-265 26 -350 11 -74 25 -157 31 -183 6 -27 17 -64 25 -83 12 -29 17 -33 32
-25 10 6 29 19 42 29 22 18 24 30 54 384 l31 366 -48 53 c-27 30 -65 79 -86
109 -20 30 -47 74 -59 98 -12 23 -23 42 -25 42z"/>
<path d="M10117 6423 c-1 40 -3 5 -3 -78 0 -82 2 -115 3 -72 2 43 2 110 0 150z"/>
<path d="M3455 5904 c-93 4 -172 1 -235 -8 -52 -8 -135 -23 -183 -35 -49 -12
-123 -33 -165 -47 -43 -15 -113 -45 -157 -67 -44 -22 -113 -62 -153 -90 -40
-28 -103 -82 -138 -121 -36 -38 -83 -100 -105 -136 -21 -36 -50 -93 -63 -126
-14 -34 -34 -107 -46 -162 -12 -61 -20 -139 -20 -200 0 -55 7 -137 16 -182 8
-45 27 -114 41 -153 14 -40 40 -100 59 -134 l35 -63 484 242 484 242 -7 31
c-4 16 -7 118 -7 225 0 107 4 226 8 264 5 38 12 64 16 57 4 -6 8 10 9 36 0 26
13 85 27 131 18 59 37 95 63 124 20 22 54 52 76 67 23 15 59 35 81 44 22 9 54
22 70 28 l30 12 -40 8 c-22 4 -103 10 -180 13z"/>
<path d="M608 5815 l-3 60 -24 -60 c-13 -33 -41 -112 -63 -175 -21 -63 -54
-170 -73 -237 -19 -67 -51 -193 -70 -280 -33 -151 -34 -164 -24 -249 5 -49 14
-120 20 -159 5 -38 21 -126 35 -195 13 -69 40 -182 59 -251 19 -70 58 -193 86
-275 27 -82 75 -210 106 -284 31 -74 93 -212 138 -305 45 -94 108 -218 140
-275 32 -58 85 -150 118 -205 34 -55 95 -152 137 -215 43 -63 117 -169 167
-235 49 -66 123 -160 164 -210 42 -49 127 -146 191 -215 63 -69 172 -176 241
-238 68 -62 167 -147 218 -189 52 -42 153 -117 224 -168 72 -50 180 -123 240
-160 61 -38 178 -104 261 -147 84 -43 198 -99 255 -124 57 -25 160 -67 229
-94 69 -26 186 -66 260 -88 74 -22 169 -50 210 -61 41 -11 154 -36 250 -55 96
-20 245 -44 330 -55 85 -11 223 -24 305 -30 83 -6 246 -10 363 -9 195 1 212 2
212 18 0 15 13 19 83 24 45 4 147 14 227 22 80 8 197 24 260 35 63 11 166 31
228 45 63 14 138 33 167 42 l53 17 -282 472 -281 472 -202 1 -203 0 0 75 c0
54 -4 75 -13 75 -6 0 -84 20 -172 45 -88 25 -333 102 -545 172 -212 69 -420
136 -462 148 -43 13 -78 21 -78 19 0 -2 53 -35 119 -74 65 -38 201 -110 302
-160 101 -49 254 -117 339 -151 85 -33 236 -88 334 -121 98 -32 246 -76 328
-97 82 -21 152 -41 155 -45 4 -3 -7 -4 -23 -1 -16 3 -99 14 -184 25 -85 12
-218 32 -295 46 -77 14 -201 39 -275 55 -74 16 -208 50 -297 74 -88 25 -226
68 -306 95 -80 27 -185 65 -234 84 -49 19 -143 58 -208 86 -66 29 -190 88
-275 131 -85 43 -218 115 -294 160 -118 69 -157 86 -260 115 -67 18 -157 45
-200 58 l-79 25 20 -22 c10 -12 64 -74 120 -138 55 -63 163 -177 239 -254 77
-76 193 -186 259 -243 66 -58 124 -109 130 -114 5 -5 -22 4 -62 21 -39 16
-118 51 -175 78 -56 26 -164 80 -239 119 -75 40 -201 112 -279 160 -78 49
-209 139 -291 200 -81 61 -197 154 -256 207 -59 52 -149 137 -199 189 -50 51
-120 127 -155 168 -36 41 -99 120 -140 175 -42 55 -104 147 -138 204 -35 57
-83 144 -108 195 -36 74 -43 84 -37 51 3 -22 22 -94 41 -160 19 -66 54 -172
80 -235 25 -63 76 -176 114 -250 37 -75 93 -175 123 -223 30 -48 51 -87 47
-87 -4 0 -38 27 -76 60 -39 34 -98 91 -133 128 -35 37 -89 99 -121 137 -31 39
-78 99 -103 135 -25 36 -71 110 -103 164 -31 55 -77 145 -102 200 -25 56 -65
161 -89 234 -24 73 -57 199 -74 280 -16 81 -34 197 -41 257 -11 108 -12 111
-53 156 -22 26 -44 47 -48 48 -5 1 -8 -92 -8 -206 -1 -115 -1 -275 0 -358 0
-82 2 -211 5 -285 l5 -135 -31 90 c-17 50 -53 170 -80 269 -27 98 -65 252 -84
342 -20 90 -44 217 -56 282 -11 64 -29 194 -40 287 -11 94 -23 269 -26 390 -3
134 -1 275 6 360 6 77 16 167 22 200 6 33 9 87 7 120z m1519 -3466 c64 -96
161 -235 216 -309 55 -74 128 -169 162 -210 33 -41 65 -82 70 -90 5 -8 -29 12
-76 44 -46 33 -138 101 -204 151 -66 51 -160 128 -210 172 l-90 80 3 124 c1
68 5 144 8 168 l6 43 115 -173z"/>
<path d="M3534 4281 c-60 36 -65 38 -59 17 4 -13 30 -67 57 -121 28 -53 85
-150 128 -215 43 -64 105 -149 139 -189 l60 -71 73 -14 c47 -8 144 -13 273
-12 150 1 236 7 345 23 80 12 197 35 261 51 64 16 162 47 219 70 57 22 128 55
158 72 30 17 62 39 70 49 9 10 19 16 23 13 5 -2 13 5 19 16 6 11 15 18 19 15
5 -3 12 2 15 11 3 8 11 12 17 8 7 -4 9 -3 6 3 -4 6 11 59 33 119 22 60 40 112
40 117 0 4 -32 -9 -71 -29 -39 -19 -124 -53 -188 -74 -64 -22 -179 -51 -256
-65 -77 -14 -209 -31 -292 -37 -115 -9 -190 -9 -300 -1 -82 6 -195 21 -253 33
-58 12 -152 37 -210 57 -58 19 -140 53 -183 74 -42 22 -107 57 -143 80z"/>
</g>
<g transform="translate(0.000000,768.000024) scale(0.075000,-0.075000)"
fill="#df7318" stroke="none">
<path d="M4135 8918 c-16 0 -69 -8 -116 -18 -47 -10 -128 -30 -180 -45 -52
-14 -134 -42 -184 -62 -49 -20 -124 -53 -166 -73 -41 -21 -115 -65 -165 -98
-49 -33 -124 -92 -166 -131 -46 -43 -104 -111 -144 -171 l-68 -100 -170 0
c-157 0 -174 -2 -206 -21 -19 -12 -52 -35 -73 -52 l-38 -30 -35 34 -34 33 25
13 c14 8 25 16 25 18 0 3 -123 5 -273 5 l-273 0 -56 -34 -56 -34 -38 39 -37
38 -36 -15 c-20 -9 -60 -24 -88 -34 -41 -14 -53 -15 -53 -5 0 7 3 27 6 44 6
30 8 31 61 31 30 0 66 6 82 14 17 9 32 11 42 5 8 -5 19 -9 26 -9 7 0 15 16 19
35 6 33 9 35 48 37 22 1 48 1 56 1 8 0 21 -2 29 -4 10 -3 17 6 20 26 4 20 13
31 31 35 17 4 2 9 -49 14 -73 7 -75 9 -134 64 -33 31 -94 100 -136 152 -42 52
-83 106 -92 119 l-15 24 -298 -116 c-164 -65 -304 -117 -311 -117 -8 0 -20
-40 -33 -107 -12 -60 -26 -144 -32 -188 -6 -44 -14 -140 -17 -214 -5 -113 -4
-133 8 -129 8 4 67 27 132 52 65 26 134 46 155 46 20 0 47 -3 59 -6 18 -5 7
-20 -96 -122 -65 -65 -144 -151 -177 -192 -34 -41 -92 -122 -131 -180 -38 -58
-86 -135 -107 -172 -20 -36 -54 -108 -75 -160 -22 -51 -60 -142 -85 -202 -26
-60 -67 -170 -91 -244 -25 -74 -66 -209 -90 -301 -25 -91 -62 -249 -84 -351
-21 -102 -42 -203 -45 -225 -5 -25 13 7 47 90 29 72 82 184 116 250 34 66 59
111 56 100 -4 -11 -22 -78 -40 -150 -18 -71 -45 -200 -59 -285 -14 -85 -33
-220 -41 -300 -9 -80 -18 -282 -21 -450 -3 -168 -2 -361 3 -430 l8 -125 18
135 c10 74 36 223 57 331 22 108 54 250 70 315 17 65 57 198 90 294 32 96 67
195 79 220 l21 45 -4 -95 c-3 -52 -11 -131 -18 -175 -7 -50 -12 -190 -12 -375
0 -219 4 -334 17 -445 10 -82 27 -205 37 -272 11 -67 36 -199 56 -293 19 -94
57 -252 84 -353 27 -100 65 -229 84 -287 l36 -105 -5 135 c-3 74 -5 203 -5
285 -1 83 -1 243 0 358 0 114 3 207 8 206 4 -1 26 -22 48 -48 41 -45 42 -48
53 -156 7 -60 25 -176 41 -257 17 -81 50 -207 74 -280 24 -73 64 -178 89 -234
25 -55 71 -145 102 -200 32 -54 78 -128 103 -164 25 -36 72 -96 103 -135 32
-38 86 -100 121 -137 35 -37 94 -94 133 -128 38 -33 72 -60 76 -60 4 0 -17 39
-47 87 -30 48 -86 148 -123 223 -38 74 -89 187 -114 250 -26 63 -61 169 -80
235 -19 66 -38 138 -41 160 -6 33 1 23 37 -51 25 -51 73 -138 108 -195 34 -57
96 -149 138 -204 41 -55 104 -134 140 -175 35 -41 105 -117 155 -168 50 -52
140 -137 199 -189 59 -53 175 -146 256 -207 82 -61 213 -151 291 -200 78 -48
204 -120 279 -160 75 -39 183 -93 239 -119 57 -27 136 -62 175 -78 40 -17 67
-26 62 -21 -6 5 -64 56 -130 114 -66 57 -182 167 -259 243 -76 77 -184 191
-239 254 -56 64 -110 126 -120 138 l-20 22 79 -25 c43 -13 133 -40 200 -58
103 -29 142 -46 260 -115 76 -45 209 -117 294 -160 85 -43 209 -102 275 -131
65 -28 159 -67 208 -86 49 -19 154 -57 234 -84 80 -27 218 -70 306 -95 89 -24
223 -58 297 -74 74 -16 198 -41 275 -55 77 -14 210 -34 295 -46 85 -11 168
-22 184 -25 16 -3 27 -2 23 1 -3 4 -73 24 -155 45 -82 21 -230 65 -328 97 -98
33 -249 88 -334 121 -85 34 -238 102 -339 151 -101 50 -237 122 -302 160 -66
39 -119 72 -119 74 0 2 35 -6 78 -19 42 -12 250 -79 462 -148 212 -70 457
-147 545 -172 88 -25 166 -45 172 -45 9 0 13 -21 13 -75 l0 -75 203 0 202 -1
281 -472 282 -472 -53 -17 c-29 -9 -104 -28 -167 -42 -62 -14 -165 -34 -228
-45 -63 -11 -180 -27 -260 -35 -80 -8 -182 -18 -227 -22 -64 -5 -83 -10 -83
-21 0 -13 15 -14 98 -8 53 3 169 13 257 21 88 8 232 26 320 40 88 14 223 39
300 56 77 16 191 43 253 59 62 17 177 50 255 75 78 25 215 75 303 110 89 35
217 90 285 122 68 32 183 91 254 131 72 40 188 111 259 158 71 46 174 119 230
161 55 42 147 116 205 166 59 50 158 142 221 206 64 63 75 75 24 26 l-92 -88
-27 46 c-15 25 -31 46 -35 46 -5 0 -39 -26 -77 -59 -37 -32 -113 -93 -168
-136 -55 -43 -146 -109 -202 -146 -56 -38 -137 -89 -180 -115 -43 -25 -113
-64 -155 -85 -43 -21 -83 -39 -89 -39 -6 0 -68 -36 -138 -80 -70 -44 -131 -80
-136 -80 -6 0 -105 158 -220 352 -116 193 -211 358 -213 365 -2 7 2 13 8 13 6
0 62 20 123 44 62 24 164 67 227 96 63 29 160 77 215 108 55 30 138 80 185
110 47 30 137 93 200 141 63 47 167 138 230 201 103 102 122 126 168 216 29
56 52 104 52 108 0 3 -143 7 -319 8 l-318 3 48 85 c27 47 49 91 49 98 0 7 -37
77 -82 155 -46 78 -81 144 -80 146 2 2 -1 7 -6 10 -5 3 -48 72 -96 153 -47 80
-86 150 -86 154 0 4 6 15 13 24 6 9 1 5 -11 -10 -13 -14 -58 -65 -100 -114
-42 -48 -118 -127 -167 -175 -50 -47 -126 -115 -168 -149 -42 -35 -121 -92
-174 -128 -54 -36 -156 -95 -228 -130 -71 -35 -178 -79 -237 -98 -58 -19 -157
-45 -220 -58 -98 -20 -142 -23 -333 -23 -168 1 -243 5 -320 19 -55 10 -151 31
-213 47 -63 17 -175 53 -250 80 -76 28 -204 84 -287 124 -82 40 -206 105 -275
145 -69 40 -215 131 -324 203 -170 112 -209 142 -264 207 -35 41 -99 128 -142
192 -43 65 -100 162 -128 215 -27 54 -53 108 -57 121 -6 21 -1 19 59 -17 36
-23 101 -58 143 -80 43 -21 125 -55 183 -74 58 -20 152 -45 210 -57 58 -12
171 -27 253 -33 110 -8 185 -8 300 1 83 6 215 23 292 37 77 14 192 43 256 65
64 21 149 55 188 74 39 20 71 33 71 30 0 -4 -16 -52 -36 -108 -20 -55 -43
-111 -51 -124 -9 -14 33 10 109 63 68 47 167 112 222 145 54 33 127 69 161 80
50 17 82 20 171 18 94 -3 113 0 142 17 18 11 43 36 55 55 15 23 21 50 21 85 0
31 -8 65 -21 90 -12 22 -50 67 -84 101 -35 33 -93 80 -129 104 -35 24 -98 58
-140 75 -41 18 -109 40 -150 51 -59 15 -108 19 -235 18 -129 -1 -175 -5 -236
-22 -42 -11 -163 -56 -270 -100 -107 -44 -225 -89 -264 -100 -38 -11 -97 -26
-130 -33 -33 -6 -114 -12 -180 -11 -93 0 -141 6 -216 25 -52 14 -128 39 -169
56 -41 18 -113 55 -160 83 -47 28 -126 82 -176 119 -51 38 -123 102 -160 142
-38 41 -85 102 -106 136 -20 34 -43 90 -52 124 -8 34 -18 76 -22 92 -7 30 -7
29 -17 -15 -6 -25 -11 -146 -11 -270 -1 -124 2 -236 6 -250 7 -25 -4 -31 -477
-268 l-484 -242 -35 63 c-19 34 -45 94 -59 134 -14 39 -33 108 -41 153 -9 45
-16 127 -16 182 0 61 8 139 20 200 12 55 32 128 46 162 13 33 42 90 63 126 22
36 69 98 105 136 35 39 98 93 138 121 40 28 109 68 153 90 44 22 116 53 160
68 43 15 127 38 185 51 58 13 159 29 225 36 93 9 148 9 245 -1 69 -6 139 -14
155 -16 19 -4 24 -2 13 2 -15 7 18 44 177 203 130 130 195 188 195 176 0 -11
3 -17 6 -14 3 4 -4 42 -16 86 -20 74 -20 82 -6 110 9 17 41 52 73 79 31 26 64
55 73 64 9 8 24 18 33 22 9 3 17 11 17 17 0 6 5 8 10 5 6 -3 13 1 16 9 3 9 12
16 19 16 7 0 16 7 19 16 3 8 10 13 15 10 5 -3 12 1 15 10 3 8 10 13 15 10 5
-3 12 1 15 10 3 8 10 12 16 9 6 -3 13 1 16 9 3 9 11 13 17 9 6 -3 7 -1 3 5 -3
6 8 27 26 48 26 29 28 36 13 31 -11 -3 -45 -10 -75 -16 -30 -6 -96 -15 -147
-21 -50 -5 -120 -19 -156 -30 -35 -11 -91 -37 -124 -59 l-61 -39 -46 56 c-25
32 -56 76 -68 99 -22 42 -23 42 -3 57 11 9 49 31 85 50 36 18 98 46 138 60 50
18 94 26 137 26 48 0 93 -10 172 -36 90 -30 118 -35 164 -31 34 3 83 17 121
35 35 17 93 53 128 80 36 27 101 83 144 124 l79 74 -11 33 c-7 19 -28 55 -48
81 -21 27 -71 70 -118 101 l-81 54 -280 5 c-260 5 -284 7 -336 28 -32 13 -84
40 -116 61 l-59 38 -31 -365 c-30 -354 -32 -366 -54 -384 -13 -10 -32 -23 -42
-29 -15 -8 -20 -4 -32 25 -8 19 -19 56 -25 83 -6 26 -20 109 -31 183 -14 91
-22 210 -26 365 -4 182 -2 255 12 350 9 66 25 155 36 199 11 43 29 101 39 129
11 28 17 54 14 59 -3 4 -10 8 -15 8 -6 0 -7 -5 -3 -12 4 -7 3 -8 -5 -4 -6 4
-9 11 -6 16 3 4 -2 13 -10 20 -8 6 -20 8 -26 4 -7 -4 -9 -3 -6 3 4 6 0 16 -8
23 -8 6 -20 8 -26 4 -7 -4 -9 -3 -6 3 4 6 0 16 -8 23 -8 6 -20 8 -27 4 -7 -4
-10 -3 -5 1 4 5 0 17 -10 27 -9 10 -20 18 -25 18 -5 0 -6 -6 -2 -12 4 -8 3
-10 -2 -5 -5 5 -9 12 -9 15 0 4 -4 13 -8 20 -5 6 -13 12 -18 12 -6 0 -7 -6 -3
-12 4 -8 3 -10 -2 -5 -5 5 -9 12 -9 15 0 4 -4 13 -8 20 -5 6 -13 12 -18 12 -6
0 -7 -5 -3 -12 4 -7 3 -8 -5 -4 -6 4 -9 11 -6 16 3 4 -2 13 -10 20 -8 6 -20 8
-26 4 -7 -4 -9 -3 -6 3 4 6 0 16 -8 23 -8 6 -20 8 -27 4 -7 -4 -10 -3 -5 1 4
5 0 17 -10 27 -9 10 -20 18 -25 18 -5 0 -6 -6 -2 -12 4 -8 3 -10 -2 -5 -5 5
-9 12 -9 15 0 4 -4 13 -8 20 -5 6 -13 12 -18 12 -6 0 -7 -5 -3 -12 5 -7 3 -8
-6 -3 -9 5 -4 14 16 31 16 13 81 50 144 83 64 33 157 76 208 95 51 20 136 47
190 62 53 15 140 35 192 44 52 10 82 18 65 18z m-1935 -789 c16 0 -8 -16 -64
-44 -49 -25 -105 -57 -123 -71 l-35 -26 -29 28 c-27 26 -28 30 -13 41 9 7 46
22 81 34 35 11 84 24 111 29 26 4 58 8 72 9z m-1369 -970 c5 -8 9 -11 9 -6 0
4 9 -2 20 -13 l20 -20 -20 -41 c-12 -22 -30 -55 -41 -72 l-21 -32 7 70 c3 39
8 83 12 99 4 21 7 25 14 15z m-260 -350 c5 -8 9 -11 9 -6 0 4 9 -2 20 -13 11
-11 20 -23 20 -27 -1 -5 -19 -39 -41 -78 l-39 -70 5 60 c3 33 8 80 11 104 4
31 8 40 15 30z m208 -224 c9 -4 40 -16 69 -27 29 -12 51 -24 50 -28 -2 -4 -37
-68 -78 -143 l-75 -136 -3 57 c-2 31 2 108 8 170 11 98 15 112 29 107z m-263
-315 c3 0 18 -7 35 -15 l29 -16 -37 -70 c-30 -55 -39 -65 -41 -48 -2 13 -1 51
3 86 4 35 9 63 11 63z m5034 -1381 c49 0 111 -5 144 -14 31 -8 89 -29 128 -45
39 -17 101 -50 138 -75 36 -24 88 -67 114 -95 26 -28 57 -72 68 -98 12 -26 22
-69 22 -95 1 -43 -3 -52 -32 -78 -25 -23 -42 -29 -76 -29 -36 0 -54 8 -102 45
-33 24 -95 74 -139 110 -44 36 -111 82 -150 101 -38 19 -101 41 -139 49 -38 7
-72 17 -76 22 -4 4 -13 40 -19 78 -7 39 -15 80 -17 92 -5 18 -1 22 23 26 15 2
66 5 113 6z"/>
<path d="M9001 7062 c-6 17 -8 17 -27 -3 l-21 -21 32 -101 c18 -56 38 -126 45
-154 8 -29 16 -51 18 -49 2 3 -6 73 -18 157 -12 84 -25 161 -29 171z"/>
<path d="M2127 2349 l-115 173 -6 -43 c-3 -24 -7 -100 -8 -168 l-3 -124 90
-80 c50 -44 144 -121 210 -172 66 -50 158 -118 204 -151 47 -32 81 -52 76 -44
-5 8 -37 49 -70 90 -34 41 -107 136 -162 210 -55 74 -152 213 -216 309z"/>
</g>
</svg>